# xmcd CD database file
#
# Track frame offsets:
#	150
#	16084
#	28554
#	43847
#	59267
#	75297
#	91008
#	104522
#	118620
#	135816
#
# Disc length: 1995 seconds
#
# Revision: 0
# Processed by: cddbd v1.5.2PL0 Copyright (c) Steve Scherf et al.
# Submitted via: CDex 1.51
#
DISCID=6907c90a
DTITLE=Beverley Mitchell - Beverley Mitchell
DYEAR=2006
DGENRE=Country
TTITLE0=Heaven On Earth Down Here
TTITLE1=Rolling Down Sonora Avenue
TTITLE2=Walkin'
TTITLE3=Dream Like We're Gonna Live Forever
TTITLE4=What Am I Doing Here
TTITLE5=Black Is Black
TTITLE6=Nothin' 'Bout Nothin'
TTITLE7=Angel
TTITLE8=You Didn't Kiss Me
TTITLE9=Unknown12
EXTD=YEAR: 2006
EXTT0=
EXTT1=
EXTT2=
EXTT3=
EXTT4=
EXTT5=
EXTT6=
EXTT7=
EXTT8=
EXTT9=
PLAYORDER=
